<mxfile host="app.diagrams.net" modified="2020-09-29T19:05:21.637Z" agent="5.0 (Windows NT 10.0; Win64; x64) AppleWebKit/537.36 (KHTML, like Gecko) Chrome/85.0.4183.121 Safari/537.36" etag="AKd1fjnTQWYpvBc7n5Ot" version="13.7.6" type="github">
  <diagram id="J1I-TtQ0vOVG7iUzYsmz" name="Page-1">
    <mxGraphModel dx="2196" dy="861" grid="1" gridSize="10" guides="1" tooltips="1" connect="1" arrows="1" fold="1" page="1" pageScale="1" pageWidth="850" pageHeight="1100" math="0" shadow="0">
      <root>
        <mxCell id="0" />
        <mxCell id="1" parent="0" />
        <mxCell id="lMt8sAx4uspoDyiHBELJ-1" value="NPN Array&lt;br&gt;ULN2803A" style="rounded=0;whiteSpace=wrap;html=1;" vertex="1" parent="1">
          <mxGeometry x="590" y="140" width="120" height="60" as="geometry" />
        </mxCell>
        <mxCell id="lMt8sAx4uspoDyiHBELJ-2" value="NPN Array&lt;br&gt;ULN2803A" style="rounded=0;whiteSpace=wrap;html=1;" vertex="1" parent="1">
          <mxGeometry x="590" y="240" width="120" height="60" as="geometry" />
        </mxCell>
        <mxCell id="lMt8sAx4uspoDyiHBELJ-6" style="edgeStyle=orthogonalEdgeStyle;rounded=0;orthogonalLoop=1;jettySize=auto;html=1;" edge="1" parent="1" source="lMt8sAx4uspoDyiHBELJ-5" target="lMt8sAx4uspoDyiHBELJ-1">
          <mxGeometry relative="1" as="geometry">
            <Array as="points">
              <mxPoint x="545" y="210" />
              <mxPoint x="545" y="170" />
            </Array>
          </mxGeometry>
        </mxCell>
        <mxCell id="lMt8sAx4uspoDyiHBELJ-7" style="edgeStyle=orthogonalEdgeStyle;rounded=0;orthogonalLoop=1;jettySize=auto;html=1;exitX=1;exitY=0.75;exitDx=0;exitDy=0;" edge="1" parent="1" source="lMt8sAx4uspoDyiHBELJ-5" target="lMt8sAx4uspoDyiHBELJ-2">
          <mxGeometry relative="1" as="geometry" />
        </mxCell>
        <mxCell id="lMt8sAx4uspoDyiHBELJ-5" value="Driver&lt;br&gt;PCA9685" style="rounded=0;whiteSpace=wrap;html=1;" vertex="1" parent="1">
          <mxGeometry x="380" y="190" width="120" height="60" as="geometry" />
        </mxCell>
        <mxCell id="lMt8sAx4uspoDyiHBELJ-10" style="edgeStyle=orthogonalEdgeStyle;rounded=0;orthogonalLoop=1;jettySize=auto;html=1;" edge="1" parent="1" source="lMt8sAx4uspoDyiHBELJ-8" target="lMt8sAx4uspoDyiHBELJ-9">
          <mxGeometry relative="1" as="geometry" />
        </mxCell>
        <mxCell id="lMt8sAx4uspoDyiHBELJ-11" style="edgeStyle=orthogonalEdgeStyle;rounded=0;orthogonalLoop=1;jettySize=auto;html=1;entryX=0.5;entryY=1;entryDx=0;entryDy=0;" edge="1" parent="1" source="lMt8sAx4uspoDyiHBELJ-8" target="lMt8sAx4uspoDyiHBELJ-5">
          <mxGeometry relative="1" as="geometry" />
        </mxCell>
        <mxCell id="lMt8sAx4uspoDyiHBELJ-18" style="edgeStyle=orthogonalEdgeStyle;rounded=0;orthogonalLoop=1;jettySize=auto;html=1;startArrow=classic;startFill=1;" edge="1" parent="1" source="lMt8sAx4uspoDyiHBELJ-8" target="lMt8sAx4uspoDyiHBELJ-16">
          <mxGeometry relative="1" as="geometry" />
        </mxCell>
        <mxCell id="lMt8sAx4uspoDyiHBELJ-23" style="edgeStyle=orthogonalEdgeStyle;rounded=0;orthogonalLoop=1;jettySize=auto;html=1;exitX=0;exitY=0.25;exitDx=0;exitDy=0;entryX=1;entryY=0.5;entryDx=0;entryDy=0;" edge="1" parent="1" source="lMt8sAx4uspoDyiHBELJ-8" target="lMt8sAx4uspoDyiHBELJ-21">
          <mxGeometry relative="1" as="geometry" />
        </mxCell>
        <mxCell id="lMt8sAx4uspoDyiHBELJ-8" value="MCU&lt;br&gt;STM32F030" style="rounded=0;whiteSpace=wrap;html=1;" vertex="1" parent="1">
          <mxGeometry x="70" y="300" width="120" height="60" as="geometry" />
        </mxCell>
        <mxCell id="lMt8sAx4uspoDyiHBELJ-9" value="RTC&lt;br&gt;DS3231" style="rounded=0;whiteSpace=wrap;html=1;" vertex="1" parent="1">
          <mxGeometry x="230" y="430" width="120" height="60" as="geometry" />
        </mxCell>
        <mxCell id="lMt8sAx4uspoDyiHBELJ-12" value="NPN Array&lt;br&gt;ULN2803A" style="rounded=0;whiteSpace=wrap;html=1;" vertex="1" parent="1">
          <mxGeometry x="590" y="380" width="120" height="60" as="geometry" />
        </mxCell>
        <mxCell id="lMt8sAx4uspoDyiHBELJ-13" value="NPN Array&lt;br&gt;ULN2803A" style="rounded=0;whiteSpace=wrap;html=1;" vertex="1" parent="1">
          <mxGeometry x="590" y="480" width="120" height="60" as="geometry" />
        </mxCell>
        <mxCell id="lMt8sAx4uspoDyiHBELJ-14" style="edgeStyle=orthogonalEdgeStyle;rounded=0;orthogonalLoop=1;jettySize=auto;html=1;" edge="1" parent="1" source="lMt8sAx4uspoDyiHBELJ-16" target="lMt8sAx4uspoDyiHBELJ-12">
          <mxGeometry relative="1" as="geometry">
            <Array as="points">
              <mxPoint x="545" y="450" />
              <mxPoint x="545" y="410" />
            </Array>
          </mxGeometry>
        </mxCell>
        <mxCell id="lMt8sAx4uspoDyiHBELJ-15" style="edgeStyle=orthogonalEdgeStyle;rounded=0;orthogonalLoop=1;jettySize=auto;html=1;exitX=1;exitY=0.75;exitDx=0;exitDy=0;" edge="1" parent="1" source="lMt8sAx4uspoDyiHBELJ-16" target="lMt8sAx4uspoDyiHBELJ-13">
          <mxGeometry relative="1" as="geometry" />
        </mxCell>
        <mxCell id="lMt8sAx4uspoDyiHBELJ-16" value="Driver&lt;br&gt;PCA9685" style="rounded=0;whiteSpace=wrap;html=1;" vertex="1" parent="1">
          <mxGeometry x="380" y="430" width="120" height="60" as="geometry" />
        </mxCell>
        <mxCell id="lMt8sAx4uspoDyiHBELJ-20" style="edgeStyle=orthogonalEdgeStyle;rounded=0;orthogonalLoop=1;jettySize=auto;html=1;entryX=0.5;entryY=0;entryDx=0;entryDy=0;" edge="1" parent="1" source="lMt8sAx4uspoDyiHBELJ-19" target="lMt8sAx4uspoDyiHBELJ-8">
          <mxGeometry relative="1" as="geometry" />
        </mxCell>
        <mxCell id="lMt8sAx4uspoDyiHBELJ-19" value="Programming Interface&lt;br&gt;SWD" style="rounded=0;whiteSpace=wrap;html=1;" vertex="1" parent="1">
          <mxGeometry x="70" y="190" width="120" height="60" as="geometry" />
        </mxCell>
        <mxCell id="lMt8sAx4uspoDyiHBELJ-21" value="Heartbeat Led" style="rounded=0;whiteSpace=wrap;html=1;" vertex="1" parent="1">
          <mxGeometry x="-110" y="290" width="120" height="30" as="geometry" />
        </mxCell>
        <mxCell id="lMt8sAx4uspoDyiHBELJ-24" style="edgeStyle=orthogonalEdgeStyle;rounded=0;orthogonalLoop=1;jettySize=auto;html=1;entryX=-0.022;entryY=0.664;entryDx=0;entryDy=0;entryPerimeter=0;" edge="1" parent="1" source="lMt8sAx4uspoDyiHBELJ-22" target="lMt8sAx4uspoDyiHBELJ-8">
          <mxGeometry relative="1" as="geometry" />
        </mxCell>
        <mxCell id="lMt8sAx4uspoDyiHBELJ-22" value="Reset Button" style="rounded=0;whiteSpace=wrap;html=1;" vertex="1" parent="1">
          <mxGeometry x="-110" y="340" width="120" height="30" as="geometry" />
        </mxCell>
        <mxCell id="lMt8sAx4uspoDyiHBELJ-25" value="I2C Output" style="rounded=0;whiteSpace=wrap;html=1;" vertex="1" parent="1">
          <mxGeometry x="590" y="30" width="120" height="60" as="geometry" />
        </mxCell>
        <mxCell id="lMt8sAx4uspoDyiHBELJ-27" style="edgeStyle=orthogonalEdgeStyle;rounded=0;orthogonalLoop=1;jettySize=auto;html=1;" edge="1" parent="1" source="lMt8sAx4uspoDyiHBELJ-26" target="lMt8sAx4uspoDyiHBELJ-25">
          <mxGeometry relative="1" as="geometry" />
        </mxCell>
        <mxCell id="lMt8sAx4uspoDyiHBELJ-28" style="edgeStyle=orthogonalEdgeStyle;rounded=0;orthogonalLoop=1;jettySize=auto;html=1;startArrow=classic;startFill=1;endArrow=none;endFill=0;" edge="1" parent="1" source="lMt8sAx4uspoDyiHBELJ-26">
          <mxGeometry relative="1" as="geometry">
            <mxPoint x="290" y="330" as="targetPoint" />
          </mxGeometry>
        </mxCell>
        <mxCell id="lMt8sAx4uspoDyiHBELJ-26" value="I2C Input" style="rounded=0;whiteSpace=wrap;html=1;" vertex="1" parent="1">
          <mxGeometry x="-110" y="30" width="120" height="60" as="geometry" />
        </mxCell>
        <mxCell id="lMt8sAx4uspoDyiHBELJ-29" value="" style="rounded=0;whiteSpace=wrap;html=1;fillColor=none;" vertex="1" parent="1">
          <mxGeometry x="-140" width="890" height="580" as="geometry" />
        </mxCell>
      </root>
    </mxGraphModel>
  </diagram>
</mxfile>
